# xmcd
#
# Track frame offsets:
#	150
#	14212
#	31463
#	49059
#	63550
#	83241
#	99222
#	115103
#	133347
#	154158
#	168845
#	187770
#	201979
#	217405
#	234985
#
# Disc length: 3319 seconds
#
# Revision: 1
# Processed by: cddbd v1.5.2PL0 Copyright (c) Steve Scherf et al.
# Submitted via: audiograbber 1.83.01
#
DISCID=d30cf50f
DTITLE=Alabama - Chartbuster Karoake Volume 3
DYEAR=2004
DGENRE=Country
TTITLE0=Here We Are
TTITLE1=Jukebox In My Mind
TTITLE2=Then Again
TTITLE3=Take A Little Trip
TTITLE4=Once Upon A Lifetime
TTITLE5=Hometown Honeymoon
TTITLE6=T.L.C.  A.S.A.P
TTITLE7=The Cheap Seats
TTITLE8=Angels Among Us
TTITLE9=Say I
TTITLE10=Dancin' Shaggin' On The Boulevard
TTITLE11=How Do You Fall In Love
TTITLE12=She's Got That Look In Her Eyes
TTITLE13=Of Course I'm Alright
TTITLE14=Keepin' Up
EXTD=
EXTT0=
EXTT1=
EXTT2=
EXTT3=
EXTT4=
EXTT5=
EXTT6=
EXTT7=
EXTT8=
EXTT9=
EXTT10=
EXTT11=
EXTT12=
EXTT13=
EXTT14=
PLAYORDER=
